<?xml version="1.0" encoding="utf-8"?>
<!-- Generator: Adobe Illustrator 19.1.0, SVG Export Plug-In . SVG Version: 6.00 Build 0)  -->
<svg version="1.1" id="Layer_1" xmlns="http://www.w3.org/2000/svg" xmlns:xlink="http://www.w3.org/1999/xlink" x="0px" y="0px"
	 viewBox="-241 333 128 128" style="enable-background:new -241 333 128 128;" xml:space="preserve">
<style type="text/css">
	.st0{fill:#FFFFFF;}
</style>
<g>
	<path class="st0" d="M-229,345v104h28h48h12l16-16v-88H-229z M-129,431.3l-13.7,13.7H-153v-12h-48v12h-24v-96h96V431.3z"/>
	<path class="st0" d="M-177,421c13.3,0,24-10.7,24-24s-10.7-24-24-24s-24,10.7-24,24S-190.3,421-177,421z M-177,389c4.4,0,8,3.6,8,8
		s-3.6,8-8,8s-8-3.6-8-8S-181.4,389-177,389z"/>
</g>
</svg>
